<svg id="visual" viewBox="0 0 1500 450" width="1500" height="450" xmlns="http://www.w3.org/2000/svg" xmlns:xlink="http://www.w3.org/1999/xlink" version="1.1"><path d="M0 136L50 134.5C100 133 200 130 300 124.8C400 119.7 500 112.3 600 116.8C700 121.3 800 137.7 900 142.8C1000 148 1100 142 1200 142C1300 142 1400 148 1450 151L1500 154L1500 0L1450 0C1400 0 1300 0 1200 0C1100 0 1000 0 900 0C800 0 700 0 600 0C500 0 400 0 300 0C200 0 100 0 50 0L0 0Z" fill="#a5c6ff"></path><path d="M0 249L50 241.5C100 234 200 219 300 210C400 201 500 198 600 201C700 204 800 213 900 220.5C1000 228 1100 234 1200 235.5C1300 237 1400 234 1450 232.5L1500 231L1500 152L1450 149C1400 146 1300 140 1200 140C1100 140 1000 146 900 140.8C800 135.7 700 119.3 600 114.8C500 110.3 400 117.7 300 122.8C200 128 100 131 50 132.5L0 134Z" fill="#afccff"></path><path d="M0 271L50 264.3C100 257.7 200 244.3 300 235.3C400 226.3 500 221.7 600 225.3C700 229 800 241 900 248.5C1000 256 1100 259 1200 260.5C1300 262 1400 262 1450 262L1500 262L1500 229L1450 230.5C1400 232 1300 235 1200 233.5C1100 232 1000 226 900 218.5C800 211 700 202 600 199C500 196 400 199 300 208C200 217 100 232 50 239.5L0 247Z" fill="#b8d3ff"></path><path d="M0 321L50 312.7C100 304.3 200 287.7 300 274.8C400 262 500 253 600 258.3C700 263.7 800 283.3 900 291.7C1000 300 1100 297 1200 294.7C1300 292.3 1400 290.7 1450 289.8L1500 289L1500 260L1450 260C1400 260 1300 260 1200 258.5C1100 257 1000 254 900 246.5C800 239 700 227 600 223.3C500 219.7 400 224.3 300 233.3C200 242.3 100 255.7 50 262.3L0 269Z" fill="#c2d9ff"></path><path d="M0 357L50 360C100 363 200 369 300 365.2C400 361.3 500 347.7 600 341.7C700 335.7 800 337.3 900 342.7C1000 348 1100 357 1200 360C1300 363 1400 360 1450 358.5L1500 357L1500 287L1450 287.8C1400 288.7 1300 290.3 1200 292.7C1100 295 1000 298 900 289.7C800 281.3 700 261.7 600 256.3C500 251 400 260 300 272.8C200 285.7 100 302.3 50 310.7L0 319Z" fill="#cbddff"></path><path d="M0 420L50 418.5C100 417 200 414 300 413.2C400 412.3 500 413.7 600 412.2C700 410.7 800 406.3 900 403.3C1000 400.3 1100 398.7 1200 397.8C1300 397 1400 397 1450 397L1500 397L1500 355L1450 356.5C1400 358 1300 361 1200 358C1100 355 1000 346 900 340.7C800 335.3 700 333.7 600 339.7C500 345.7 400 359.3 300 363.2C200 367 100 361 50 358L0 355Z" fill="#d3e0ff"></path><path d="M0 451L50 451C100 451 200 451 300 451C400 451 500 451 600 451C700 451 800 451 900 451C1000 451 1100 451 1200 451C1300 451 1400 451 1450 451L1500 451L1500 395L1450 395C1400 395 1300 395 1200 395.8C1100 396.7 1000 398.3 900 401.3C800 404.3 700 408.7 600 410.2C500 411.7 400 410.3 300 411.2C200 412 100 415 50 416.5L0 418Z" fill="#dae4ff"></path></svg>