<svg width="148" height="51" viewBox="0 0 148 51" fill="none" xmlns="http://www.w3.org/2000/svg">
<path d="M40.5164 49.2812C29.7658 48.6341 27.1195 47.8253 30.4274 48.1488C39.2973 48.7662 48.2043 48.658 57.0557 47.8253C71.8544 46.4541 86.2949 42.5674 99.7273 36.3401C110.489 31.0844 120.591 24.6245 129.829 17.0901C136.61 11.5902 142.233 7.54608 145.541 7.54608C145.707 7.54608 146.038 7.70783 146.203 7.70783C148.849 8.19312 147.691 13.5313 139.091 20.8107C130.656 27.9283 115.274 37.1489 93.6078 43.2959C78.959 47.409 63.7949 49.5019 48.5545 49.5141C45.4616 49.5141 42.7525 49.4203 40.5164 49.2812Z" fill="url(#paint0_linear_1_749)"/>
<path d="M112.461 19.0315C104.853 27.7667 97.2448 33.5902 97.741 34.5607C98.0718 35.5313 109.815 31.0019 120.896 20.9726C132.143 10.9433 134.293 0.105137 130.324 0.590427C126.189 0.75219 120.235 10.458 112.461 19.0315Z" fill="#DA9BC5"/>
<path d="M37.0212 50.0899C34.4791 49.8602 31.7749 49.5383 28.7697 49.1193H28.6044C23.2329 48.5329 17.9214 47.5048 12.7265 46.0458C11.0726 45.5605 9.74941 45.0752 8.59165 44.7517C5.94536 43.7811 3.96069 43.134 2.96833 42.6487C2.37954 42.3426 1.14756 41.3007 1.14756 41.3007C1.14756 41.3007 0.504346 40.9656 1.14779 40.2813C1.79124 39.597 15.4212 46.7613 28.1081 47.8252C40.795 48.889 30.9199 48.1487 31.7468 48.3105C34.3931 48.4722 37.2048 48.634 40.0165 48.634C46.9711 48.6091 53.9027 47.8498 60.6907 46.3693C67.7652 44.6287 74.7247 42.4679 81.5303 39.8987C87.326 37.8739 92.9641 35.4411 98.4003 32.6194C99.7235 31.8105 101.212 31.0017 102.701 30.1929C104.189 29.3841 105.512 28.4135 107.001 27.7664C108.119 27.2404 109.281 26.8075 110.474 26.4723C110.474 26.4723 110.805 26.3106 111.632 27.1194H112.128C112.247 27.1547 112.359 27.2094 112.459 27.2811V28.737C111.466 31.1635 103.693 36.5017 99.5581 38.6046L95.5887 40.5458C89.5874 43.3298 83.3295 45.5505 76.8992 47.1781C73.2605 47.9869 69.4565 48.634 65.8179 49.1193H65.6525C63.0062 49.4428 60.3599 49.7663 58.0444 49.9281C57.4137 49.9863 56.794 50.0403 56.1854 50.0899H37.0212Z" fill="url(#paint1_linear_1_749)"/>
<defs>
<linearGradient id="paint0_linear_1_749" x1="143.793" y1="30.3242" x2="33.526" y2="25.1836" gradientUnits="userSpaceOnUse">
<stop stop-color="#97CAEB"/>
<stop offset="0.0667423" stop-color="#97CAEB"/>
<stop offset="0.1774" stop-color="#7CB7DD"/>
<stop offset="0.4178" stop-color="#4791C1"/>
<stop offset="0.6263" stop-color="#2076AD"/>
<stop offset="0.7924" stop-color="#0966A0"/>
<stop offset="0.8953" stop-color="#00609C"/>
<stop offset="1" stop-color="#00609C"/>
</linearGradient>
<linearGradient id="paint1_linear_1_749" x1="-65.007" y1="38.3877" x2="112.348" y2="38.3877" gradientUnits="userSpaceOnUse">
<stop stop-color="#97CAEB"/>
<stop offset="0.2666" stop-color="#97CAEB"/>
<stop offset="0.3397" stop-color="#7CB7DD"/>
<stop offset="0.4986" stop-color="#4791C1"/>
<stop offset="0.6363" stop-color="#2076AD"/>
<stop offset="0.7461" stop-color="#0966A0"/>
<stop offset="0.8141" stop-color="#00609C"/>
<stop offset="1" stop-color="#00609C"/>
</linearGradient>
</defs>
</svg>
